<svg width="66" height="31" viewBox="0 0 66 31" fill="none" xmlns="http://www.w3.org/2000/svg">
<path d="M27.0305 25.7806C26.9971 25.3608 26.8926 24.9776 26.7168 24.6315C26.4141 24.0164 25.9745 23.5403 25.3968 23.2047C24.9022 22.9149 24.3687 22.7692 23.7967 22.7692C22.9663 22.7692 22.2421 23.0584 21.6234 23.6367C21.0046 24.216 20.6596 24.9308 20.588 25.7806H27.0305ZM25.5161 29.8991C25.5161 29.8991 24.8606 29.8991 23.7884 29.8991C22.6998 29.8991 21.7951 29.5023 21.0749 28.7084C20.3874 27.9589 20.0442 27.0834 20.0442 26.0832C20.0442 25.3446 20.2413 24.6591 20.6376 24.0272C20.9672 23.5018 21.3942 23.0849 21.9162 22.7773C22.499 22.4365 23.1284 22.2661 23.8053 22.2661C24.7781 22.2661 25.6226 22.5984 26.3375 23.2638C26.8703 23.762 27.222 24.1759 27.459 25.1935C27.5246 25.4744 27.5387 26.2385 27.5387 26.2385H20.5677C20.6011 26.8036 20.7638 27.3636 21.0501 27.8273C21.3522 28.3084 21.7401 28.6858 22.2127 28.9598C22.7084 29.2505 23.2386 29.3962 23.8053 29.3962C24.3712 29.3962 25.5161 29.3962 25.5161 29.3962V29.8991Z" fill="#F39100" fill-opacity="0.5" stroke="#A2A1A1" stroke-opacity="0.5"/>
<path d="M5.5791 29.7655H6.09922V22.4336H5.5791V29.7655Z" fill="#F39100" fill-opacity="0.5" stroke="#A2A1A1" stroke-opacity="0.5"/>
<path d="M11.6828 22.7691C10.7534 22.7691 9.96177 23.1273 9.30746 23.842C8.74629 24.4519 8.46598 25.1795 8.46598 26.0233C8.46598 27.031 8.80729 27.8553 9.48894 28.498C10.1206 29.0967 10.8412 29.396 11.65 29.396C12.5791 29.396 13.368 29.0464 14.017 28.3473C14.6054 27.7156 14.8995 26.9584 14.8995 26.0744C14.8995 25.0841 14.5313 24.2565 13.7946 23.5907C13.2005 23.0596 12.4969 22.7858 11.6828 22.7691ZM8.45762 24.145C9.21709 22.8915 10.2971 22.266 11.6994 22.266C12.8153 22.266 13.7397 22.682 14.4709 23.5156C15.1032 24.2429 15.4196 25.0984 15.4196 26.0831C15.4196 27.2568 14.9904 28.2211 14.1326 28.9766C13.4397 29.5917 12.6233 29.899 11.6828 29.899C10.7534 29.899 9.9369 29.5942 9.23317 28.9844C8.58979 28.4313 8.18856 27.7353 8.02906 26.8964C7.96785 26.5665 7.93848 26.0773 7.93848 25.428V19.6987H8.45762V24.145Z" fill="#F39100" fill-opacity="0.5" stroke="#A2A1A1" stroke-opacity="0.5"/>
<path d="M19.6118 22.4166V22.9194C18.8646 22.9424 18.337 23.142 18.0323 23.5199C17.727 23.8977 17.5749 24.5389 17.5749 25.4453V29.7658H17.0548V25.3951C16.9942 23.3981 17.8467 22.4061 19.6118 22.4166Z" fill="#F39100" fill-opacity="0.5" stroke="#A2A1A1" stroke-opacity="0.5"/>
<path d="M3.75291 29.8575V29.3535C3.0048 29.331 2.4788 29.1321 2.17351 28.7538C1.86844 28.3763 1.71569 27.7353 1.71569 26.8298L1.71247 19.6987H1.19301L1.1959 26.8794C1.13513 28.8753 1.98775 29.8681 3.75291 29.8575Z" fill="#F39100" fill-opacity="0.5" stroke="#A2A1A1" stroke-opacity="0.5"/>
<path d="M60.415 25.8815C60.3818 25.4616 60.277 25.0785 60.1013 24.7322C59.7986 24.117 59.359 23.6411 58.7813 23.3052C58.2869 23.0156 57.7534 22.87 57.1812 22.87C56.3506 22.87 55.6266 23.1592 55.0079 23.7374C54.3893 24.3167 54.0441 25.0315 53.9726 25.8815H60.415ZM58.9007 29.9998C58.9007 29.9998 58.2452 29.9998 57.173 29.9998C56.0843 29.9998 55.1796 29.6031 54.4594 28.8091C53.7722 28.0596 53.4287 27.1841 53.4287 26.1838C53.4287 25.4451 53.6258 24.7597 54.0221 24.1279C54.3519 23.6023 54.7787 23.1856 55.3008 22.8781C55.8836 22.5372 56.5129 22.3667 57.1899 22.3667C58.1625 22.3667 59.007 22.699 59.722 23.3646C60.2548 23.8626 60.6065 24.2766 60.8435 25.2941C60.9092 25.5751 60.9231 26.3391 60.9231 26.3391H53.9522C53.9856 26.9042 54.1483 27.4644 54.4346 27.9279C54.7368 28.409 55.1246 28.7865 55.5973 29.0605C56.0929 29.3512 56.6232 29.4969 57.1899 29.4969C57.7557 29.4969 58.9007 29.4969 58.9007 29.4969V29.9998Z" fill="#F39100" fill-opacity="0.5" stroke="#F39100" stroke-opacity="0.5"/>
<path d="M33.5037 22.4166V22.9194C32.7557 22.9424 32.2291 23.142 31.9244 23.5199C31.6188 23.8977 31.4661 24.5389 31.4661 25.4453V29.7658H30.9469V25.3951C30.8863 23.3981 31.7387 22.4061 33.5037 22.4166Z" fill="#F39100" fill-opacity="0.5" stroke="#F39100" stroke-opacity="0.5"/>
<path d="M37.7232 22.7692C36.7826 22.7692 35.9876 23.141 35.3394 23.8847C34.7945 24.5111 34.5227 25.244 34.5227 26.0832C34.5227 27.0608 34.8774 27.8806 35.5863 28.5403C36.1968 29.1112 36.8924 29.3961 37.6735 29.3961C38.6519 29.3961 39.463 29.0239 40.1064 28.2809C40.6509 27.6539 40.9229 26.9299 40.9229 26.1079C40.9229 25.1232 40.5686 24.2953 39.8591 23.6248C39.2709 23.0705 38.5587 22.7859 37.7232 22.7692ZM37.7232 22.2661C38.8174 22.2661 39.7382 22.6771 40.4861 23.4985C41.1347 24.2151 41.459 25.0874 41.459 26.1168C41.459 27.2623 41.0361 28.2103 40.1888 28.9598C39.4801 29.586 38.6386 29.8991 37.6653 29.8991C37.0715 29.8991 36.4992 29.7487 35.9499 29.4465C35.3113 29.0995 34.8195 28.6103 34.4731 27.9787C34.1484 27.3965 33.9866 26.7652 33.9866 26.0832C33.9866 24.9191 34.4126 23.9599 35.2645 23.2047C35.9467 22.5948 36.7663 22.282 37.7232 22.2661Z" fill="#F39100" fill-opacity="0.5" stroke="#F39100" stroke-opacity="0.5"/>
<path d="M43.0046 22.4336H43.5238V26.5185C43.5238 27.0056 43.5443 27.3689 43.586 27.6093C43.6277 27.85 43.7104 28.0904 43.8375 28.3305C44.0187 28.6715 44.2715 28.9401 44.5964 29.1361C44.9208 29.3314 45.2781 29.4301 45.6684 29.4301C46.0426 29.4301 46.3862 29.3375 46.6996 29.1528C47.0137 28.9677 47.2635 28.7133 47.4506 28.3894C47.5874 28.1436 47.6828 27.8863 47.7347 27.6174C47.7871 27.3497 47.8133 26.98 47.8133 26.5107V22.4336H48.3326V26.6104C48.3326 27.5005 48.1979 28.1761 47.9287 28.6409C47.7087 29.0265 47.395 29.3375 46.9886 29.572C46.5648 29.8127 46.1193 29.9328 45.6525 29.9328C45.0363 29.9328 44.4863 29.7369 44.0028 29.345C43.6287 29.0379 43.3692 28.6753 43.2229 28.2591C43.0769 27.8432 43.0046 27.2457 43.0046 26.4687V22.4336Z" fill="#F39100" fill-opacity="0.5" stroke="#F39100" stroke-opacity="0.5"/>
<path d="M50.1698 22.4338V19.8579H50.6897V22.4338H52.7185V22.9367H50.6897V26.7456C50.6897 27.6455 50.8419 28.2845 51.1473 28.6621C51.4523 29.0397 51.9766 29.2392 52.7185 29.2618V29.7658C50.9586 29.7761 50.1092 28.7833 50.1698 26.7874V22.4338Z" fill="#F39100" fill-opacity="0.5" stroke="#F39100" stroke-opacity="0.5"/>
<path d="M65.003 22.4166V22.9194C64.255 22.9424 63.7281 23.142 63.4232 23.5199C63.1181 23.8977 62.9652 24.5389 62.9652 25.4453V29.7658H62.4456V25.3951C62.3851 23.3981 63.2372 22.4061 65.003 22.4166Z" fill="#F39100" fill-opacity="0.5" stroke="#F39100" stroke-opacity="0.5"/>
<path d="M32.3514 4.20926C32.3514 4.20926 34.131 1.68305 36.7614 2.82624C36.7614 2.82624 38.9492 3.55733 39.3137 6.10368C39.3137 6.10368 39.8088 8.54387 37.8815 10.6984C37.8815 10.6984 34.8681 13.9687 32.3514 15.6179C32.3514 15.6179 28.7401 13.0912 26.8129 10.6984C26.8129 10.6984 25.0295 8.80942 25.3673 6.10368C25.3673 6.10368 25.6283 4.22251 26.9949 3.34486C26.9949 3.34486 29.7643 1.16388 32.3514 4.20926Z" fill="#F39100" fill-opacity="0.5"/>
<path d="M23.9261 2.88037C23.9261 2.88037 23.9124 2.91715 23.8868 2.986C23.8601 3.05321 23.8269 3.15522 23.7824 3.28023C23.6943 3.531 23.5777 3.88609 23.4579 4.30357C23.4007 4.51362 23.3374 4.73736 23.2847 4.97565C23.2559 5.09398 23.2315 5.21624 23.2041 5.3396C23.1853 5.46559 23.1514 5.58928 23.1344 5.7191C23.0871 5.97546 23.0594 6.24166 23.0274 6.50951C23.0062 6.77878 22.9858 7.05123 22.9851 7.32422L22.9817 7.5288L22.9869 7.73305C22.9873 7.86922 22.997 8.00462 23.004 8.13959C23.0061 8.20712 23.0123 8.27411 23.0208 8.34066C23.0264 8.40765 23.0319 8.47431 23.0374 8.54065C23.0475 8.67364 23.0735 8.8028 23.0849 8.93339C23.1234 9.19106 23.1618 9.44347 23.2122 9.68242C23.2236 9.74241 23.2329 9.8025 23.2455 9.86084C23.2591 9.91886 23.274 9.97556 23.2855 10.0328C23.3114 10.1462 23.3312 10.2585 23.3599 10.3635C23.4154 10.5742 23.4568 10.7752 23.5087 10.9488C23.5568 11.1241 23.592 11.2834 23.6308 11.4105C23.668 11.5385 23.691 11.6445 23.7098 11.7152C23.7273 11.7867 23.7349 11.8265 23.7349 11.8265C23.7349 11.8265 23.7041 11.8023 23.6499 11.7539C23.5969 11.7048 23.5146 11.6351 23.4178 11.5394C23.3163 11.4467 23.211 11.3214 23.0877 11.1762C22.961 11.0329 22.8413 10.8555 22.7073 10.6604C22.639 10.5636 22.584 10.454 22.5178 10.3442C22.4528 10.2337 22.3919 10.1161 22.335 9.99176C22.2155 9.74547 22.1104 9.47412 22.0199 9.18591C21.9328 8.89694 21.858 8.59067 21.8153 8.27346C21.7961 8.11452 21.7691 7.9546 21.7645 7.79205L21.7517 7.54828L21.7527 7.30353C21.7544 6.97701 21.7929 6.65192 21.8455 6.33635C21.8768 6.17949 21.904 6.02307 21.9483 5.873C21.9687 5.79758 21.9888 5.72271 22.0088 5.64839C22.0315 5.57483 22.0575 5.50292 22.0814 5.43133C22.1283 5.28772 22.185 5.15046 22.2402 5.01692C22.3028 4.886 22.3546 4.75509 22.4224 4.63534C22.5467 4.39124 22.6872 4.17375 22.8215 3.97946C23.0971 3.5935 23.3726 3.31285 23.5809 3.13563C23.6832 3.04555 23.7731 2.98414 23.8316 2.94123C23.8915 2.8992 23.9261 2.88037 23.9261 2.88037Z" fill="#858788" fill-opacity="0.5"/>
<path d="M20.3891 1.84668C20.3891 1.84668 20.3677 1.89298 20.3276 1.97978C20.2868 2.06549 20.2331 2.19443 20.1642 2.35512C20.0955 2.51592 20.0165 2.71207 19.93 2.9357C19.8436 3.15954 19.7529 3.41283 19.6599 3.68813C19.5709 3.96528 19.4739 4.26213 19.3919 4.58044C19.347 4.73818 19.3099 4.90248 19.2676 5.06798C19.2366 5.23698 19.1878 5.40402 19.16 5.57905C19.0879 5.92527 19.0433 6.28638 18.9961 6.65077C18.9642 7.01713 18.9291 7.38842 18.9314 7.76102L18.9261 8.04015L18.9348 8.31872C18.9374 8.50437 18.9525 8.6887 18.9639 8.87237L18.9731 9.00974L18.9898 9.14591C18.9989 9.23687 19.008 9.3274 19.0172 9.41737C19.024 9.5079 19.0402 9.59634 19.054 9.68478C19.0689 9.77301 19.0798 9.86156 19.0923 9.94924C19.1521 10.2975 19.2145 10.6366 19.2931 10.9559C19.3112 11.0364 19.3266 11.1165 19.3463 11.1942C19.3676 11.2715 19.3899 11.3473 19.4089 11.423C19.45 11.5734 19.4822 11.7226 19.5271 11.8611C19.6139 12.139 19.6821 12.4027 19.7635 12.6289C19.84 12.8574 19.8986 13.0638 19.9608 13.2275C20.0201 13.3925 20.0605 13.5277 20.0912 13.6183C20.1195 13.7107 20.1345 13.7601 20.1345 13.7601C20.1345 13.7601 20.0975 13.7253 20.0313 13.6571C19.9665 13.588 19.8667 13.4893 19.7477 13.3565C19.6229 13.2271 19.4943 13.0546 19.3425 12.8564C19.1862 12.6606 19.0399 12.4203 18.8745 12.1581C18.8312 12.0935 18.7947 12.0235 18.7571 11.9522C18.7192 11.881 18.6805 11.8083 18.6411 11.7344C18.6011 11.6606 18.5634 11.5841 18.5237 11.5069C18.4862 11.4286 18.4523 11.3472 18.4157 11.2654C18.2683 10.9386 18.1391 10.5806 18.0273 10.2019C17.9198 9.82194 17.8284 9.42087 17.7753 9.00624C17.7519 8.7987 17.7181 8.58985 17.7141 8.37772L17.6987 8.05952C17.6973 7.95334 17.6983 7.84684 17.6992 7.74034C17.7048 7.31465 17.748 6.89016 17.8142 6.4776C17.8541 6.27259 17.8869 6.0679 17.942 5.87109C17.9672 5.77235 17.9923 5.67406 18.0171 5.57664C18.0455 5.48021 18.0775 5.38563 18.1072 5.29139C18.1645 5.10246 18.2362 4.92196 18.3038 4.74529C18.3412 4.65849 18.3782 4.57267 18.4148 4.48784C18.4501 4.40268 18.488 4.31993 18.5296 4.24013C18.6831 3.91591 18.8574 3.62551 19.0236 3.36401C19.3648 2.84474 19.7052 2.45867 19.9627 2.21052C20.0894 2.08476 20.1997 1.99631 20.2724 1.93512C20.3464 1.8747 20.3891 1.84668 20.3891 1.84668Z" fill="#858788" fill-opacity="0.5"/>
<path d="M16.9635 0C16.9635 0 16.9307 0.0605313 16.869 0.174151C16.8069 0.286675 16.724 0.456667 16.6172 0.669128C16.5103 0.881371 16.3931 1.14594 16.2596 1.44564C16.1276 1.74632 15.989 2.08871 15.847 2.46274C15.7812 2.65221 15.7036 2.84464 15.6392 3.0501C15.6051 3.15157 15.5706 3.25501 15.5353 3.35998C15.5034 3.46583 15.4709 3.57321 15.4381 3.68212C15.3694 3.89852 15.3137 4.12522 15.249 4.35333C15.1998 4.58637 15.1287 4.81744 15.0853 5.06C14.9762 5.53944 14.9065 6.04153 14.837 6.54942C14.7869 7.05973 14.7373 7.57813 14.7389 8.09839L14.7327 8.48818C14.7371 8.618 14.7413 8.74771 14.7457 8.8772C14.7495 9.1364 14.7736 9.39363 14.7915 9.64955L14.8061 9.84099L14.8307 10.0306C14.8453 10.1571 14.8599 10.2831 14.8743 10.4082C14.8855 10.5341 14.9097 10.6571 14.9306 10.7799C14.9527 10.9024 14.9707 11.0251 14.9902 11.1466C15.0819 11.6295 15.1798 12.0975 15.3 12.5363C15.3283 12.6467 15.3529 12.7567 15.3832 12.8633C15.4156 12.9694 15.4476 13.0738 15.4791 13.1765C15.5427 13.3818 15.5933 13.5857 15.6622 13.7739C15.7957 14.1519 15.9035 14.5086 16.029 14.8129C16.1476 15.1202 16.2409 15.3968 16.3376 15.6147C16.43 15.8349 16.4963 16.0132 16.5447 16.1334C16.5906 16.2553 16.6152 16.3204 16.6152 16.3204C16.6152 16.3204 16.5699 16.2688 16.4848 16.1722C16.4023 16.0736 16.2766 15.9315 16.1246 15.7437C15.9653 15.5602 15.802 15.3176 15.6079 15.0403C15.4077 14.7665 15.2217 14.4332 15.0095 14.0709C14.9542 13.9814 14.9074 13.8853 14.8594 13.7874C14.8109 13.6893 14.7615 13.5894 14.7112 13.4879C14.6619 13.3856 14.6116 13.2814 14.5606 13.1758C14.5124 13.0687 14.4695 12.9574 14.4227 12.8458C14.2335 12.3996 14.0689 11.9125 13.9253 11.3993C13.7878 10.8845 13.6713 10.3424 13.6029 9.78331C13.5731 9.50353 13.5302 9.222 13.525 8.93609C13.5185 8.79346 13.5118 8.65073 13.5052 8.50766C13.5037 8.3646 13.5056 8.2212 13.5068 8.07781C13.5129 7.50435 13.5706 6.93264 13.655 6.37615C13.7075 6.09965 13.7486 5.82327 13.8198 5.55706C13.8523 5.42341 13.8845 5.29064 13.9166 5.15885C13.9555 5.02903 13.9941 4.90019 14.0324 4.77234C14.0518 4.70864 14.071 4.64515 14.0901 4.58199C14.1118 4.51971 14.1332 4.45754 14.1547 4.39591C14.1971 4.27222 14.2413 4.15061 14.2851 4.03075C14.3334 3.91253 14.3811 3.79541 14.4281 3.67993C14.4517 3.62225 14.4752 3.565 14.4984 3.50808C14.5244 3.45237 14.5502 3.39698 14.5757 3.34192C14.7729 2.89883 14.9974 2.49963 15.2107 2.13874C15.4312 1.78102 15.6476 1.46435 15.854 1.19541C16.0597 0.925921 16.2533 0.703499 16.4176 0.525955C16.5786 0.345893 16.7205 0.218044 16.8138 0.129382C16.9088 0.0418137 16.9635 0 16.9635 0Z" fill="#858788" fill-opacity="0.5"/>
<path d="M40.7705 2.89355C40.7705 2.89355 40.8052 2.91238 40.8649 2.95441C40.9236 2.99732 41.0134 3.05873 41.1158 3.14881C41.3242 3.32603 41.5996 3.60669 41.875 3.99275C42.0095 4.18704 42.15 4.40443 42.2742 4.64863C42.3421 4.76838 42.3939 4.8993 42.4565 5.03021C42.5117 5.16375 42.5684 5.3009 42.6151 5.44462C42.6391 5.51621 42.6652 5.58813 42.6878 5.66157C42.7078 5.73601 42.728 5.81077 42.7484 5.88619C42.7926 6.03625 42.8199 6.19278 42.8512 6.34953C42.9038 6.6651 42.9423 6.99031 42.944 7.31682L42.9451 7.56158L42.9322 7.80523C42.9276 7.96778 42.9007 8.1277 42.8814 8.28664C42.8385 8.60396 42.7639 8.91023 42.6768 9.1992C42.5863 9.48741 42.4811 9.75865 42.3617 10.0049C42.3047 10.1293 42.244 10.247 42.1788 10.3574C42.1127 10.4672 42.0576 10.5769 41.9893 10.6737C41.8553 10.8687 41.7357 11.0462 41.609 11.1894C41.4855 11.3345 41.3802 11.4599 41.2788 11.5526C41.1819 11.6484 41.0997 11.718 41.0467 11.7671C40.9925 11.8155 40.9617 11.8397 40.9617 11.8397C40.9617 11.8397 40.9692 11.7999 40.9868 11.7284C41.0056 11.6577 41.0286 11.5517 41.0657 11.4236C41.1046 11.2966 41.1399 11.1373 41.1879 10.9619C41.2397 10.7883 41.2812 10.5874 41.3367 10.3767C41.3653 10.2717 41.3853 10.1594 41.411 10.046C41.4227 9.98874 41.4376 9.93204 41.4512 9.87413C41.4637 9.81568 41.4731 9.75559 41.4844 9.6956C41.5347 9.45665 41.5734 9.20435 41.6118 8.94657C41.6231 8.81609 41.6493 8.68682 41.6593 8.55383C41.6647 8.48761 41.6703 8.42084 41.676 8.35385C41.6843 8.28729 41.6906 8.22031 41.6927 8.15277C41.6996 8.01791 41.7093 7.88251 41.7096 7.74634L41.715 7.54209L41.7116 7.3374C41.7107 7.06452 41.6905 6.79207 41.6692 6.52269C41.6373 6.25495 41.6095 5.98864 41.5621 5.73228C41.5451 5.60247 41.5113 5.47878 41.4926 5.35279C41.4651 5.22943 41.4407 5.10716 41.4119 4.98894C41.3592 4.75054 41.296 4.52691 41.2388 4.31675C41.1189 3.89927 41.0024 3.54418 40.9143 3.29341C40.8698 3.16841 40.8365 3.06639 40.81 2.99918C40.7842 2.93033 40.7705 2.89355 40.7705 2.89355Z" fill="#858788" fill-opacity="0.5"/>
<path d="M44.3076 1.85986C44.3076 1.85986 44.3503 1.88799 44.4242 1.9482C44.497 2.00949 44.6072 2.09794 44.7339 2.22371C44.9913 2.47185 45.332 2.85803 45.673 3.37731C45.8392 3.6387 46.0136 3.9292 46.1671 4.25342C46.2086 4.33322 46.2465 4.41597 46.2819 4.50113C46.3184 4.58596 46.3555 4.67178 46.3929 4.75858C46.4605 4.93525 46.5322 5.11575 46.5895 5.30468C46.6192 5.39892 46.6512 5.4936 46.6796 5.59004C46.7044 5.68746 46.7294 5.78564 46.7546 5.88438C46.8097 6.08129 46.8426 6.28598 46.8824 6.491C46.9486 6.90356 46.9919 7.32804 46.9974 7.75384C46.9983 7.86024 46.9993 7.96674 46.9979 8.07303L46.9826 8.39112C46.9786 8.60325 46.9447 8.8121 46.9213 9.01974C46.8682 9.43427 46.7768 9.83544 46.6693 10.2154C46.5575 10.5941 46.4284 10.9522 46.2809 11.2789C46.2443 11.3608 46.2105 11.4421 46.1729 11.5204C46.1332 11.5976 46.0955 11.6741 46.0555 11.7479C46.0162 11.8218 45.9775 11.8945 45.9395 11.9657C45.9019 12.037 45.8654 12.107 45.8221 12.1716C45.6567 12.4339 45.5104 12.6741 45.3541 12.87C45.2022 13.0682 45.0736 13.2407 44.949 13.37C44.83 13.5029 44.7302 13.6016 44.6652 13.6707C44.5991 13.7389 44.5621 13.7736 44.5621 13.7736C44.5621 13.7736 44.5771 13.7243 44.6054 13.6319C44.6361 13.5413 44.6765 13.4061 44.736 13.241C44.798 13.0774 44.8567 12.8709 44.9331 12.6424C45.0146 12.4163 45.0827 12.1526 45.1696 11.8747C45.2145 11.7361 45.2466 11.587 45.2877 11.4365C45.3067 11.3608 45.3291 11.285 45.3503 11.2077C45.37 11.13 45.3854 11.0499 45.4036 10.9694C45.4821 10.6502 45.5445 10.311 45.6043 9.96263C45.6169 9.87496 45.6277 9.78651 45.6426 9.69829C45.6565 9.60984 45.6726 9.52129 45.6794 9.43088C45.6885 9.34079 45.6977 9.25027 45.7068 9.15931L45.7235 9.02325L45.7327 8.88577C45.7441 8.7022 45.7593 8.51776 45.7618 8.33223L45.7705 8.05354L45.7652 7.77442C45.7675 7.40182 45.7324 7.03053 45.7005 6.66417C45.6533 6.29967 45.6087 5.93856 45.5365 5.59245C45.5089 5.41731 45.4602 5.25027 45.4291 5.08127C45.3867 4.91576 45.3496 4.75147 45.3047 4.59373C45.2227 4.27531 45.1256 3.97857 45.0367 3.70131C44.9437 3.42602 44.853 3.17273 44.7667 2.94888C44.6802 2.72525 44.6011 2.52921 44.5324 2.3683C44.4637 2.20762 44.41 2.07867 44.3691 1.99297C44.3289 1.90627 44.3076 1.85986 44.3076 1.85986Z" fill="#858788" fill-opacity="0.5"/>
<path d="M47.7332 0.0136719C47.7332 0.0136719 47.7878 0.0554855 47.8827 0.143053C47.9762 0.231716 48.1179 0.359565 48.2789 0.539626C48.4433 0.71717 48.6369 0.939701 48.8425 1.20908C49.049 1.47802 49.2654 1.79469 49.4859 2.15241C49.6992 2.51329 49.9238 2.91249 50.1208 3.35559C50.1464 3.41065 50.1722 3.46603 50.1982 3.52175C50.2216 3.57867 50.2449 3.63591 50.2685 3.6936C50.3156 3.80908 50.3633 3.9262 50.4115 4.04442C50.4553 4.16428 50.4995 4.28589 50.542 4.40957C50.5634 4.4712 50.5848 4.53337 50.6065 4.59566C50.6257 4.65881 50.645 4.7223 50.6643 4.78601C50.7025 4.91386 50.7411 5.04269 50.78 5.17251C50.8121 5.30441 50.8443 5.43707 50.8768 5.57072C50.9481 5.83693 50.9893 6.11332 51.0416 6.38992C51.1261 6.94641 51.1837 7.51801 51.1899 8.09147C51.191 8.23486 51.1929 8.37826 51.1914 8.52132C51.1849 8.66438 51.1783 8.80723 51.1716 8.94975C51.1665 9.23565 51.1236 9.51719 51.0937 9.79707C51.0253 10.3562 50.909 10.8981 50.7712 11.4129C50.6277 11.9262 50.4632 12.4133 50.274 12.8594C50.227 12.9712 50.1841 13.0824 50.136 13.1896C50.085 13.2951 50.0347 13.3993 49.9853 13.5015C49.9351 13.6031 49.8857 13.7029 49.8373 13.801C49.7892 13.8991 49.7424 13.9951 49.687 14.0845C49.4749 14.4468 49.289 14.7801 49.0886 15.0541C48.8946 15.3312 48.7312 15.5738 48.5721 15.7574C48.4201 15.9451 48.2943 16.0873 48.2117 16.1858C48.1268 16.2825 48.0814 16.334 48.0814 16.334C48.0814 16.334 48.1059 16.269 48.1519 16.1471C48.2002 16.027 48.2666 15.8486 48.3591 15.6283C48.4556 15.4105 48.5489 15.1339 48.6676 14.8265C48.793 14.5222 48.9009 14.1655 49.0344 13.7876C49.1032 13.5995 49.1539 13.3955 49.2176 13.1901C49.249 13.0874 49.2809 12.983 49.3135 12.8769C49.3437 12.7704 49.3684 12.6603 49.3966 12.5501C49.5169 12.1112 49.6147 11.6431 49.7064 11.1603C49.7259 11.0388 49.7439 10.9162 49.766 10.7936C49.787 10.6708 49.811 10.5477 49.8224 10.4219C49.8368 10.2968 49.8512 10.1709 49.8659 10.0442L49.8905 9.85476L49.905 9.6632C49.9229 9.40729 49.9471 9.15006 49.9509 8.89086C49.9553 8.76147 49.9596 8.63166 49.964 8.50184L49.9577 8.11205C49.9594 7.59179 49.9097 7.07339 49.8598 6.56309C49.7901 6.05519 49.7204 5.5531 49.6113 5.07367C49.5679 4.8311 49.4968 4.60003 49.4476 4.36699C49.383 4.13888 49.3272 3.91219 49.2585 3.69579C49.2256 3.58688 49.1932 3.4795 49.1613 3.37365C49.1261 3.26868 49.0915 3.16535 49.0574 3.06377C48.993 2.85831 48.9154 2.66588 48.8497 2.47641C48.7075 2.10238 48.5691 1.75999 48.437 1.45931C48.3035 1.15961 48.1864 0.895042 48.0794 0.682799C47.9725 0.470338 47.8899 0.300347 47.8275 0.187822C47.766 0.0742031 47.7332 0.0136719 47.7332 0.0136719Z" fill="#858788" fill-opacity="0.5"/>
</svg>
